<?xml version="1.0" encoding="UTF-8"?><svg id="Layer_1" xmlns="http://www.w3.org/2000/svg" viewBox="0 0 1499.05 1531.3"><defs><style>.cls-1{fill:#974527;}.cls-2{fill:#c79560;}.cls-3{fill:#2e5540;}.cls-4{fill:#1f3f2c;}.cls-5{fill:#747745;}</style></defs><path class="cls-1" d="M1238.54,189.68c65.57,58.51,119.11,123.54,162.1,200.36,25.88,46.24,54.7,109.61,67.15,160.85.58,2.38,1.5,4.69,1.29,7.2-11.03,1.58-22.3.92-33.37,2.13-103.09,11.26-190.85,76.79-235.02,169.98-9.84,20.76-13.24,32.86-18.63,53.2-.23.85-2,.64-2,1.26,0,5.01-1.01,3.57-1.02,3.99-.02.83,1.1,2.03,1.09,2.88-.01.63-2.02.46-2.11,1.18-.24,2.03.34,7.69.12,9.76-.07.71-2.02.56-2.12,1.24-.22,1.56,1.49,3.81,1.11,5.74-.14.72-2.03.57-2.1,1.27-.27,2.68.42,10.99.1,12.73-.13.7-1.94.58-2.08,1.3-.42,2.16,1.62,5.08,1.05,7.66-.17.79-1.83.23-2.09,2.11-.95,6.83,2.02,17.41.04,25.01l.62,239.59-3.04,1.02c-67.21,2.79-137.4-7.85-202.76,10.24-69.96,19.36-129.41,64.14-169.6,126.4-6.72,10.41-14.81,23.52-19.49,33.54-2.63,5.62-4.69,13.85-7.93,19.04-.78,1.25-.94,2.11-2.76,1.73l-.03-194.55c3.67-106.25,34.64-200.22,108-277.97,95.4-101.1,238.32-151.16,297.2-284.8,21.35-48.46,30.39-101.46,33.87-154.13l-.04-217.54c1.74-.46,2,.73,3,1.49,10.36,7.84,19.85,17.52,29.45,26.08Z"/><path class="cls-3" d="M479.68,294.52c61.63,44.39,116.08,92.15,158.82,155.67,67.84,100.82,89.91,222.41,94.63,342.37l-.05,243.54-20.47-42.02c-60.42-112.54-165.32-179.58-256.54-263.46-90.19-82.93-135.82-181.36-140.03-304.97l.05-241.54,4.35,1.15c50.95,39.45,107.02,71.65,159.24,109.26Z"/><path class="cls-1" d="M8.09,844.1c-.56.03-1.6,1.54-2.99,1,.09-1.6-.72-3.07-.9-4.61-25.97-230.42,70.35-476.38,236.87-633.9,12.83-12.14,26.94-23.05,39.53-35.48,3.84-.84,1.38,12.88,1.46,15.44,1.12,37.64.75,75.31.63,112.88-.56,181.02,1.24,362.29.18,543.46-2,2.12-3.43,1.12-4.78,1.22l-.5-.98-.5.98c-1,.04-2-.02-3,0h-40c-45.32.09-90.68.02-136,0-1.04-1.66-3.79-1-5.49-1.02-8.99-.11-18.04-.09-27.03,0-1.69.02-4.45-.64-5.49,1.02-11.99,0-24.01-.04-36,0-4.07-1.66-11.73-1.7-16,0Z"/><path class="cls-5" d="M641.51,959.69c73.94,78.68,89.22,180.32,91.62,284.88,1.22,52.87-1.25,105.75-1.05,158.54-7.99-11.15-15.26-22.77-24.48-33.01-36.56-40.62-86.83-58.63-133.54-83.46-147.12-78.22-245-176.35-256.97-352.03-.98-14.43-2.74-39.36-1.06-53.04.24-1.95.13-3.28,2.55-3.45,75.44,3.9,157.64-10.97,229.49,16.52,35.54,13.59,67.58,37.56,93.43,65.07Z"/><path class="cls-2" d="M1479.04,592.15c2.79,17.07,6.82,33.9,9.61,50.98,14.87,90.99,14,184.11-3.99,274.97-11.48,57.99-30.49,114.12-53.53,165.56-1.6,3.57-4.96,13.28-7.56,15.44-3.41,2.84-14.35.03-18.94-.04-57.68-.84-115.29,1.05-173.01,1.09-8.57,0-17.08-.42-25.62-.51l.03-255.08c2.05-32.07,9.27-62.83,21.58-92.42,41.76-100.39,142.5-163.73,251.43-159.99Z"/><path class="cls-2" d="M1172.09,1395.6c-116.33,82.29-256.7,131.13-400.01,135.51-.22-6.82.31-13.72.05-20.55-4.85-127.78,16.07-261.52,132.09-335.83,80.09-51.29,152.35-40.08,241.34-40.58,6.74-.04,15.2-1.44,22.04-1.15,1.14.05,4.49.24,4.49,1.6v261Z"/><path class="cls-4" d="M767.09.1c6.15.21,12.38-.27,18.54-.04,119.37,4.38,246.81,46.53,347.37,109.63,8.9,5.58,29.27,17.55,36.02,23.97.95.9,2.02,1.26,2.05,2.91.03,2-12.07,22.42-14.18,25.84-60.03,97.46-146.36,141.97-231.28,211.72-57,46.81-108.56,103.26-140.39,170.61-5.99,12.67-9.93,26.83-15.86,39.14-.57,1.19-.54,2.96-2.28,3.22V.1Z"/><path class="cls-4" d="M1079.64,609.69c-32.58,32.91-72.69,58.11-109.47,86-68.46,51.92-137.29,104.49-180.26,180.74-7.9,14.03-13.86,28.91-20.56,43.48-.65,1.42.59,2.72-2.26,2.18,1.12-46.43-1.5-93.12-.05-139.54,3.61-115.68,35.14-229.76,112.07-317.93,81.26-93.14,197.94-143.63,275.95-241.05,5.67-7.08,10.23-15.55,17.02-21.47l.05,181.54c-5.04,86.43-31.14,164.06-92.49,226.04Z"/><path class="cls-3" d="M733.09.1v565c-1.74-.27-1.74-1.99-2.27-3.23-5.98-13.97-10.25-29.55-16.26-43.74-47.97-113.38-131.59-193.16-230.75-262.25-49.88-34.76-106.37-66.7-153.64-104.36-3.52-2.81-11.64-7.3-7.46-11.29,8.46-8.06,27.4-19.39,37.85-26.14,77.83-50.3,166.92-85.87,258.34-102.66C656.35,4.54,694.98.17,733.09.1Z"/><path class="cls-2" d="M282.09,878.1v482l-15.01-11.49c-138.65-119.95-232.39-287.87-257.99-470.51h273Z"/><path class="cls-5" d="M316.09,1081.1c1.5.23,1.88,1.88,2.52,2.98,7.28,12.42,12.85,27.67,20.31,40.69,47.69,83.25,120.66,138.12,203.5,183.5,68.86,37.72,139.5,56.72,171.44,136.56,10.77,26.92,14.91,55.03,17.18,83.86-.03,2.3-1.61,2.23-3.4,2.45-4.71.59-20.3-.69-26.04-1.06-21.66-1.39-45.27-4.72-66.72-8.28-114.93-19.11-225.85-65.38-318.79-135.21v-305.5Z"/><path class="cls-5" d="M1406.09,1133.1c1.29,1.15-14.4,27.31-16.19,30.31-45.74,76.19-105.89,143.83-173.84,200.13l-9.96,5.56v-236h200Z"/><path class="cls-3" d="M316.09,595.1c2.91-.55,1.6.84,2.26,2.2,36.42,74.51,66.89,115.73,128.73,171.32,34.37,30.9,72.3,57.79,105.01,90.48-7.09-1.17-13.84-4.02-20.79-5.7-69.48-16.74-144.18-6.37-215.21-9.29v-249Z"/><path class="cls-2" d="M274.09,844.1c-13.3.24-26.69-.03-40,0h40Z"/><path class="cls-5" d="M98.09,844.1c-12.65,0-25.35,0-38,0,1.04-1.66,3.79-1,5.49-1.02,8.99-.09,18.04-.11,27.03,0,1.69.02,4.45-.64,5.49,1.02Z"/><path class="cls-5" d="M24.09,844.1c-5.26.02-10.79-.3-16,0,4.27-1.7,11.93-1.66,16,0Z"/><path class="cls-2" d="M278.09,844.1c-.33.02-.67-.01-1,0l.5-.98.5.98Z"/></svg>